<?xml version="1.0" encoding="UTF-8" standalone="no"?>
<svg
   width="512"
   height="512"
   viewBox="0 0 52.4288 52.419048"
   version="1.1"
   id="svg36"
   sodipodi:docname="docker.svg"
   inkscape:version="1.1.2 (0a00cf5339, 2022-02-04)"
   xmlns:inkscape="http://www.inkscape.org/namespaces/inkscape"
   xmlns:sodipodi="http://sodipodi.sourceforge.net/DTD/sodipodi-0.dtd"
   xmlns="http://www.w3.org/2000/svg"
   xmlns:svg="http://www.w3.org/2000/svg">
  <defs
     id="defs40" />
  <sodipodi:namedview
     id="namedview38"
     pagecolor="#ffffff"
     bordercolor="#666666"
     borderopacity="1.0"
     inkscape:pageshadow="2"
     inkscape:pageopacity="0.0"
     inkscape:pagecheckerboard="0"
     showgrid="false"
     inkscape:zoom="1.2095238"
     inkscape:cx="235.21654"
     inkscape:cy="245.96457"
     inkscape:window-width="1854"
     inkscape:window-height="1052"
     inkscape:window-x="0"
     inkscape:window-y="0"
     inkscape:window-maximized="1"
     inkscape:current-layer="svg36" />
  <g
     id="g8306"
     transform="matrix(0.98900481,0,0,0.98900481,0.09665866,11.380069)">
    <path
       style="fill:#364548;fill-opacity:1;fill-rule:evenodd;stroke-width:0.207075"
       d="m 30.541119,9.4699667 h 4.734983 V 14.310351 H 37.6701 c 1.105782,0 2.242832,-0.196928 3.289805,-0.551648 0.514582,-0.174565 1.091907,-0.417257 1.599449,-0.722693 C 41.890915,12.163395 41.549655,11.061547 41.44943,9.9754375 41.312761,8.4979553 41.610949,6.5750543 42.610709,5.4187459 l 0.497809,-0.5756693 0.593063,0.4768944 c 1.49322,1.1995871 2.749132,2.8760686 2.970495,4.787166 1.798035,-0.5288699 3.909167,-0.4037965 5.493914,0.510855 l 0.650217,0.37522 -0.342089,0.668025 c -1.340398,2.615775 -4.142748,3.426268 -6.882354,3.282765 -4.099469,10.210675 -13.024621,15.04464 -23.846168,15.04464 -5.591032,0 -10.720287,-2.090011 -13.6412908,-7.050292 L 8.0564708,22.857591 7.6309311,21.991602 C 6.6435962,19.8082 6.315589,17.416273 6.5379878,15.026211 l 0.066885,-0.71586 H 10.654023 V 9.4699667 h 4.734776 V 4.7349834 h 9.470174 V 0 h 5.682146 v 9.4699667"
       id="path609" />
    <g
       id="g195">
      <g
         id="g177">
        <path
           d="M 45.88167,11.260754 C 46.199116,8.7932447 44.352626,6.8552271 43.2075,5.9349846 c -1.319691,1.5257307 -1.524696,5.5243544 0.545643,7.2078764 -1.15548,1.026265 -3.590064,1.956447 -6.083043,1.956447 H 7.3242527 c -0.2422781,2.602315 0.2145299,4.998797 1.2579823,7.049878 l 0.3451945,0.63158 a 11.707208,11.707208 0 0 0 0.7154451,1.073478 c 1.2476284,0.08014 2.3979314,0.107679 3.4502884,0.08449 h 4.14e-4 c 2.068061,-0.04556 3.755517,-0.289906 5.034414,-0.733047 a 0.36465957,0.36465957 0 0 1 0.238758,0.688733 c -0.170216,0.05922 -0.347472,0.114305 -0.530527,0.166695 h -6.21e-4 c -1.007007,0.287628 -2.086905,0.481036 -3.480107,0.566972 0.08283,0.0014 -0.08614,0.01243 -0.08656,0.01243 -0.04742,0.0031 -0.107058,0.0099 -0.154685,0.01242 -0.548335,0.03085 -1.140156,0.03727 -1.74523,0.03727 -0.661813,0 -1.313479,-0.01243 -2.042177,-0.0497 l -0.01864,0.01242 c 2.52839,2.841901 6.481871,4.546338 11.437596,4.546338 10.487949,0 19.383903,-4.649254 23.323303,-15.086884 2.794688,0.2868 5.480662,-0.425953 6.702406,-2.811047 -1.946094,-1.122969 -4.448805,-0.764936 -5.889842,-0.04059"
           fill="#22a0c8"
           id="path4"
           style="fill-rule:evenodd;stroke-width:0.207075" />
        <path
           d="M 45.88167,11.260754 C 46.199116,8.7932447 44.352626,6.8552271 43.2075,5.9349846 c -1.319691,1.5257307 -1.524696,5.5243544 0.545643,7.2078764 -1.15548,1.026265 -3.590064,1.956447 -6.083043,1.956447 H 9.1212519 c -0.123831,3.985371 1.3551011,7.010534 3.9717041,8.839423 h 6.21e-4 c 2.068061,-0.04556 3.755517,-0.289906 5.034414,-0.733047 a 0.36465957,0.36465957 0 0 1 0.238758,0.688733 c -0.170216,0.05922 -0.347472,0.114305 -0.530527,0.166695 h -6.21e-4 c -1.007007,0.287628 -2.179674,0.505885 -3.572877,0.591821 -4.14e-4,0 -0.03375,-0.0321 -0.03417,-0.0321 3.569356,1.830959 8.744789,1.824333 14.678531,-0.454945 6.653329,-2.556137 12.844672,-7.425719 17.16447,-12.995423 -0.06502,0.0294 -0.128387,0.05943 -0.189888,0.09028"
           fill="#37b1d9"
           id="path6"
           style="fill-rule:evenodd;stroke-width:0.207075" />
        <path
           d="m 7.3811984,18.261141 c 0.1884385,1.39403 0.5963768,2.699226 1.2010366,3.888045 l 0.3451945,0.63158 a 11.685672,11.685672 0 0 0 0.7154451,1.073478 c 1.2478354,0.08014 2.3981384,0.107679 3.4507024,0.08449 2.068061,-0.04556 3.755517,-0.289906 5.034414,-0.733047 a 0.36465957,0.36465957 0 0 1 0.238758,0.688733 c -0.170216,0.05922 -0.347472,0.114305 -0.530527,0.166695 h -6.21e-4 c -1.007007,0.287628 -2.173462,0.493461 -3.566665,0.579604 -0.04783,0.0029 -0.131285,0.0035 -0.179534,0.0062 -0.547921,0.03065 -1.133737,0.04949 -1.739018,0.04949 -0.661606,0 -1.338328,-0.01263 -2.066611,-0.0497 2.528389,2.841901 6.506305,4.55255 11.46203,4.55255 8.978785,0 16.790492,-3.408045 21.324406,-10.93813 H 7.3811984"
           fill="#1b81a5"
           id="path8"
           style="fill-rule:evenodd;stroke-width:0.207075" />
        <path
           d="m 9.3943842,18.261141 c 0.5367392,2.447629 1.8266108,4.369081 3.6991928,5.67759 2.068061,-0.04556 3.755517,-0.289906 5.034414,-0.733047 a 0.36465957,0.36465957 0 0 1 0.238758,0.688733 c -0.170216,0.05922 -0.347472,0.114305 -0.530527,0.166695 h -6.21e-4 c -1.007007,0.287628 -2.198104,0.493461 -3.591514,0.579604 3.56915,1.830545 8.729673,1.804247 14.663001,-0.474824 3.589443,-1.379121 7.04408,-3.432065 10.143375,-5.904751 H 9.3943842"
           fill="#1d91b4"
           id="path10"
           style="fill-rule:evenodd;stroke-width:0.207075" />
        <path
           d="m 11.44298,10.259131 h 4.103818 v 4.103817 H 11.44298 Z m 0.341881,0.342088 h 0.323866 v 3.419848 h -0.323866 z m 0.608802,0 h 0.336911 v 3.419848 H 12.39387 v -3.419848 z m 0.62164,0 h 0.336911 v 3.419848 h -0.336911 z m 0.622054,0 h 0.336704 v 3.419848 h -0.336704 z m 0.621847,0 h 0.336704 v 3.419848 h -0.336704 z m 0.62164,0 h 0.324073 v 3.419848 h -0.324073 z m 1.297119,-5.0770718 h 4.104025 V 9.6277581 H 16.177756 V 5.5241472 Z m 0.342089,0.3420884 h 0.323658 v 3.4196412 h -0.323658 z m 0.608801,0 h 0.336704 V 9.2858768 H 17.12906 V 5.8662356 Z m 0.62164,0 h 0.336704 v 3.4196412 h -0.336704 z m 0.621847,0 h 0.336704 V 9.2858768 H 18.37234 Z m 0.621847,0 h 0.336912 v 3.4196412 h -0.336912 z m 0.62164,0 h 0.32428 v 3.4196412 h -0.32428 z"
           fill="#23a3c2"
           id="path12"
           style="fill-rule:evenodd;stroke-width:0.207075" />
        <path
           d="m 16.177963,10.259131 h 4.104025 v 4.103817 h -4.104232 v -4.103817 z m 0.342089,0.342088 h 0.323658 v 3.419848 h -0.323658 z m 0.608801,0 h 0.336704 v 3.419848 H 17.12906 v -3.419848 z m 0.62164,0 h 0.336704 v 3.419848 h -0.336704 z m 0.621847,0 h 0.336704 v 3.419848 H 18.37234 Z m 0.621847,0 h 0.336912 v 3.419848 h -0.336912 z m 0.62164,0 h 0.32428 v 3.419848 h -0.32428 z"
           fill="#34bbde"
           id="path14"
           style="fill-rule:evenodd;stroke-width:0.207075" />
        <path
           d="m 20.913154,10.259131 h 4.103818 v 4.103817 h -4.103818 z m 0.341881,0.342088 h 0.323659 v 3.419848 h -0.323659 z m 0.608801,0 h 0.336705 v 3.419848 h -0.336705 z m 0.621847,0 h 0.336705 v 3.419848 h -0.336705 z m 0.621847,0 h 0.336705 v 3.419848 H 23.10753 Z m 0.62164,0 h 0.337119 v 3.419848 H 23.72917 Z m 0.621848,0 h 0.323865 v 3.419848 h -0.323865 z"
           fill="#23a3c2"
           id="path16"
           style="fill-rule:evenodd;stroke-width:0.207075" />
        <path
           d="m 20.913154,5.5241472 h 4.103818 v 4.1036109 h -4.103818 z m 0.341881,0.3420884 h 0.323659 v 3.4196412 h -0.323659 z m 0.608801,0 h 0.336705 v 3.4196412 h -0.336705 z m 0.621847,0 h 0.336705 v 3.4196412 h -0.336705 z m 0.621847,0 h 0.336705 V 9.2858768 H 23.10753 Z m 0.62164,0 h 0.337119 V 9.2858768 H 23.72917 Z m 0.621848,0 h 0.323865 v 3.4196412 h -0.323865 z m 1.297119,4.3928954 h 4.103818 v 4.103817 h -4.103818 z m 0.342088,0.342088 h 0.323659 v 3.419848 h -0.323659 z m 0.608802,0 h 0.336704 v 3.419848 h -0.336704 z m 0.62164,0 h 0.336704 v 3.419848 h -0.336704 z m 0.621847,0 h 0.336911 v 3.419848 h -0.336911 z m 0.621847,0 h 0.336911 v 3.419848 h -0.336911 z m 0.621847,0 h 0.323866 v 3.419848 h -0.323866 z"
           fill="#34bbde"
           id="path18"
           style="fill-rule:evenodd;stroke-width:0.207075" />
        <path
           d="m 25.648137,5.5241472 h 4.103818 v 4.1036109 h -4.103818 z m 0.342088,0.3420884 h 0.323659 v 3.4196412 h -0.323659 z m 0.608802,0 h 0.336704 v 3.4196412 h -0.336704 z m 0.62164,0 h 0.336704 v 3.4196412 h -0.336704 z m 0.621847,0 h 0.336911 v 3.4196412 h -0.336911 z m 0.621847,0 h 0.336911 v 3.4196412 h -0.336911 z m 0.621847,0 h 0.323866 v 3.4196412 h -0.323866 z"
           fill="#23a3c2"
           id="path20"
           style="fill-rule:evenodd;stroke-width:0.207075" />
        <path
           d="m 25.648137,0.78895682 h 4.103818 V 4.8931889 h -4.103818 z m 0.342088,0.34188128 h 0.323659 V 4.5508934 H 25.990225 V 1.130631 Z m 0.608802,0 h 0.336704 V 4.5508934 H 26.599027 V 1.130631 Z m 0.62164,0 h 0.336704 V 4.5508934 H 27.220667 V 1.130631 Z m 0.621847,0 h 0.336911 V 4.5508934 H 27.842514 V 1.130631 Z m 0.621847,0 h 0.336911 V 4.5508934 H 28.464361 V 1.130631 Z m 0.621847,0 h 0.323866 V 4.5508934 H 29.086208 V 1.130631 Z"
           fill="#34bbde"
           id="path22"
           style="fill-rule:evenodd;stroke-width:0.207075" />
        <path
           d="m 30.38312,10.259131 h 4.103818 v 4.103817 H 30.38312 Z m 0.341675,0.342088 h 0.324072 v 3.419848 h -0.323865 v -3.419848 z m 0.608801,0 h 0.336911 v 3.419848 h -0.336704 v -3.419848 z m 0.622054,0 h 0.336912 v 3.419848 H 31.95565 Z m 0.62164,0 h 0.336912 v 3.419848 H 32.57729 Z m 0.622054,0 h 0.336705 v 3.419848 h -0.336705 z m 0.62164,0 h 0.323866 v 3.419848 h -0.323866 z"
           fill="#23a3c2"
           id="path24"
           style="fill-rule:evenodd;stroke-width:0.207075" />
        <path
           d="m 20.025008,21.016484 a 1.1322876,1.1322876 0 1 1 -4.14e-4,2.264369 1.1322876,1.1322876 0 0 1 4.14e-4,-2.264369"
           fill="#d3ecec"
           id="path26"
           style="fill-rule:evenodd;stroke-width:0.207075" />
        <path
           d="m 20.025008,21.337658 c 0.103538,0 0.202312,0.01947 0.293426,0.05487 a 0.3309063,0.3309063 0 0 0 0.165246,0.617084 c 0.12528,0 0.233995,-0.06937 0.290319,-0.172079 a 0.81069972,0.81069972 0 1 1 -0.748991,-0.49988 M 0,18.670321 h 52.664835 c -1.146576,-0.290733 -3.627959,-0.683762 -3.218778,-2.186715 -2.085248,2.412842 -7.113658,1.692841 -8.382822,0.503193 -1.413082,2.049631 -9.640182,1.270407 -10.213988,-0.32635 -1.771736,2.079243 -7.261509,2.079243 -9.033245,0 C 21.241782,18.257206 13.014888,19.03643 11.6016,16.986592 10.332642,18.176447 5.3044404,18.896448 3.2191923,16.483814 3.6283731,17.986559 1.14699,18.379588 0,18.670528"
           fill="#364548"
           id="path28"
           style="fill-rule:evenodd;stroke-width:0.207075" />
        <path
           d="m 23.034433,29.174836 c -2.803799,-1.330458 -4.342576,-3.139261 -5.198832,-5.113517 -1.041589,0.297153 -2.293359,0.487248 -3.748063,0.568836 -0.547921,0.03065 -1.124418,0.04639 -1.729078,0.04639 -0.69743,0 -1.43234,-0.02071 -2.203902,-0.0615 2.571253,2.569804 5.734328,4.548201 11.591245,4.584232 0.432374,0 0.861434,-0.0083 1.28863,-0.02444"
           fill="#bdd9d7"
           id="path30"
           style="fill-rule:evenodd;stroke-width:0.207075" />
        <path
           d="m 18.876983,25.883168 c -0.387852,-0.526593 -0.764108,-1.188405 -1.040761,-1.822263 -1.041588,0.297567 -2.293773,0.487662 -3.748684,0.569457 0.999346,0.54233 2.428372,1.044902 4.789652,1.252806"
           fill="#d3ecec"
           id="path32"
           style="fill-rule:evenodd;stroke-width:0.207075" />
      </g>
    </g>
  </g>
</svg>
