<?xml version="1.0" encoding="UTF-8" standalone="no"?>
<!-- Uploaded to: SVG Repo, www.svgrepo.com, Generator: SVG Repo Mixer Tools -->

<svg
   height="800px"
   width="800px"
   version="1.1"
   id="Layer_1"
   viewBox="0 0 512 512"
   xml:space="preserve"
   sodipodi:docname="united-states-svgrepo-com.svg"
   inkscape:version="1.1.2 (0a00cf5339, 2022-02-04)"
   xmlns:inkscape="http://www.inkscape.org/namespaces/inkscape"
   xmlns:sodipodi="http://sodipodi.sourceforge.net/DTD/sodipodi-0.dtd"
   xmlns="http://www.w3.org/2000/svg"
   xmlns:svg="http://www.w3.org/2000/svg"><defs
   id="defs37" /><sodipodi:namedview
   id="namedview35"
   pagecolor="#ffffff"
   bordercolor="#666666"
   borderopacity="1.0"
   inkscape:pageshadow="2"
   inkscape:pageopacity="0.0"
   inkscape:pagecheckerboard="0"
   showgrid="false"
   inkscape:zoom="0.79375"
   inkscape:cx="391.1811"
   inkscape:cy="400"
   inkscape:window-width="1854"
   inkscape:window-height="1052"
   inkscape:window-x="0"
   inkscape:window-y="0"
   inkscape:window-maximized="1"
   inkscape:current-layer="Layer_1" />
<path
   style="fill:#73AF00;"
   d="M473.655,88.275H38.345C17.167,88.275,0,105.442,0,126.62V385.38  c0,21.177,17.167,38.345,38.345,38.345h435.31c21.177,0,38.345-17.167,38.345-38.345V126.62  C512,105.442,494.833,88.275,473.655,88.275z"
   id="path2" />
<path
   style="fill:#FFE15A;"
   d="M251.41,135.207L65.354,248.458c-5.651,3.439-5.651,11.641,0,15.081L251.41,376.792  c2.819,1.716,6.36,1.716,9.18,0l186.056-113.252c5.651-3.439,5.651-11.641,0-15.081L260.59,135.207  C257.771,133.492,254.229,133.492,251.41,135.207z"
   id="path4" />
<circle
   style="fill:#41479B;"
   cx="256"
   cy="255.999"
   r="70.62"
   id="circle6" />
<g
   id="g32">
	<path
   style="fill:#F5F5F5;"
   d="M195.4,219.872c-3.332,5.578-5.905,11.64-7.605,18.077c39.149-2.946,97.062,8.006,133.922,43.773   c2.406-6.141,3.995-12.683,4.59-19.522C288.247,230.167,235.628,218.776,195.4,219.872z"
   id="path8" />
	<path
   style="fill:#F5F5F5;"
   d="M258.925,280.099l1.88,5.638l5.943,0.046c0.769,0.006,1.088,0.988,0.469,1.445l-4.781,3.531   l1.793,5.666c0.232,0.734-0.604,1.341-1.229,0.893l-4.835-3.456l-4.835,3.456c-0.626,0.447-1.461-0.159-1.229-0.893l1.793-5.666   l-4.781-3.531c-0.619-0.457-0.3-1.439,0.469-1.445l5.943-0.046l1.88-5.638C257.649,279.368,258.681,279.368,258.925,280.099z"
   id="path10" />
	<path
   style="fill:#F5F5F5;"
   d="M282.024,294.683l0.809,2.426l2.558,0.02c0.331,0.002,0.468,0.425,0.202,0.622l-2.058,1.519   l0.771,2.439c0.099,0.316-0.259,0.577-0.53,0.384l-2.081-1.487l-2.081,1.487c-0.269,0.193-0.629-0.068-0.529-0.384l0.771-2.439   l-2.058-1.519c-0.267-0.196-0.129-0.619,0.202-0.622l2.558-0.02l0.809-2.426C281.474,294.368,281.919,294.368,282.024,294.683z"
   id="path12" />
	<path
   style="fill:#F5F5F5;"
   d="M248.938,269.388l0.809,2.426l2.558,0.02c0.331,0.002,0.469,0.425,0.202,0.622l-2.058,1.519   l0.771,2.439c0.099,0.316-0.259,0.577-0.529,0.384l-2.081-1.487l-2.081,1.487c-0.269,0.193-0.629-0.068-0.53-0.384l0.771-2.439   l-2.058-1.519c-0.266-0.196-0.129-0.619,0.202-0.622l2.558-0.02l0.809-2.426C248.388,269.076,248.833,269.076,248.938,269.388z"
   id="path14" />
	<path
   style="fill:#F5F5F5;"
   d="M204.13,266.446l0.809,2.426l2.558,0.02c0.331,0.002,0.469,0.425,0.202,0.622l-2.058,1.519   l0.771,2.439c0.099,0.316-0.259,0.577-0.53,0.384l-2.081-1.487l-2.081,1.487c-0.269,0.192-0.629-0.068-0.529-0.384l0.771-2.439   l-2.058-1.519c-0.267-0.196-0.129-0.619,0.202-0.622l2.558-0.02l0.809-2.426C203.581,266.133,204.025,266.133,204.13,266.446z"
   id="path16" />
	<path
   style="fill:#F5F5F5;"
   d="M241.614,293.846l0.809,2.426l2.558,0.02c0.331,0.002,0.469,0.425,0.202,0.622l-2.058,1.519   l0.771,2.439c0.099,0.316-0.259,0.577-0.529,0.384l-2.081-1.487l-2.081,1.487c-0.269,0.193-0.629-0.068-0.53-0.384l0.771-2.439   l-2.058-1.519c-0.266-0.196-0.129-0.619,0.202-0.622l2.558-0.02l0.809-2.426C241.065,293.532,241.51,293.532,241.614,293.846z"
   id="path18" />
	<path
   style="fill:#F5F5F5;"
   d="M220.99,264.753l0.662,1.984l2.092,0.017c0.27,0.002,0.383,0.348,0.166,0.509l-1.683,1.242   l0.631,1.994c0.082,0.258-0.212,0.472-0.433,0.314l-1.702-1.216l-1.702,1.216c-0.221,0.158-0.514-0.056-0.433-0.314l0.631-1.994   l-1.683-1.242c-0.217-0.161-0.106-0.507,0.166-0.509l2.092-0.017l0.662-1.984C220.541,264.497,220.904,264.497,220.99,264.753z"
   id="path20" />
	<path
   style="fill:#F5F5F5;"
   d="M283.819,223.794l0.828,2.482l2.616,0.02c0.339,0.002,0.479,0.435,0.206,0.637l-2.104,1.554   l0.789,2.495c0.103,0.323-0.266,0.59-0.541,0.393l-2.129-1.522l-2.129,1.522c-0.276,0.198-0.643-0.071-0.541-0.393l0.789-2.495   l-2.104-1.554c-0.273-0.201-0.132-0.633,0.206-0.637l2.616-0.02l0.828-2.482C283.257,223.47,283.712,223.47,283.819,223.794z"
   id="path22" />
	<path
   style="fill:#F5F5F5;"
   d="M207.012,252.615l0.662,1.984l2.092,0.017c0.27,0.002,0.383,0.348,0.166,0.509l-1.683,1.242   l0.631,1.994c0.082,0.258-0.212,0.472-0.433,0.314l-1.702-1.216l-1.702,1.216c-0.221,0.158-0.514-0.056-0.433-0.314l0.631-1.994   l-1.683-1.242c-0.218-0.161-0.106-0.506,0.166-0.509l2.092-0.017l0.662-1.984C206.563,252.358,206.926,252.358,207.012,252.615z"
   id="path24" />
	<path
   style="fill:#F5F5F5;"
   d="M217.112,280.581l1.002,3.005l3.168,0.024c0.41,0.003,0.58,0.526,0.25,0.77l-2.549,1.882l0.956,3.02   c0.124,0.391-0.321,0.715-0.655,0.476l-2.578-1.843l-2.578,1.843c-0.333,0.238-0.779-0.085-0.655-0.476l0.956-3.02l-2.549-1.882   c-0.33-0.244-0.16-0.767,0.25-0.77l3.168-0.024l1.002-3.005C216.433,280.191,216.983,280.191,217.112,280.581z"
   id="path26" />
	<path
   style="fill:#F5F5F5;"
   d="M294.903,295.313l0.631,1.891l1.993,0.015c0.258,0.002,0.365,0.331,0.158,0.484l-1.603,1.184   l0.601,1.9c0.077,0.246-0.202,0.449-0.413,0.299l-1.621-1.159l-1.622,1.159c-0.21,0.15-0.49-0.053-0.413-0.299l0.601-1.9   l-1.603-1.184c-0.207-0.153-0.1-0.482,0.158-0.484l1.993-0.015l0.63-1.891C294.475,295.068,294.822,295.068,294.903,295.313z"
   id="path28" />
	<path
   style="fill:#F5F5F5;"
   d="M301.877,280.883l0.809,2.426l2.558,0.02c0.331,0.002,0.469,0.425,0.202,0.622l-2.058,1.519   l0.771,2.439c0.099,0.316-0.259,0.577-0.529,0.384l-2.081-1.487l-2.081,1.487c-0.269,0.193-0.629-0.068-0.529-0.384l0.771-2.439   l-2.058-1.519c-0.266-0.196-0.129-0.619,0.202-0.622l2.558-0.02l0.809-2.426C301.327,280.568,301.772,280.568,301.877,280.883z"
   id="path30" />
</g>
<g
   id="g1155"
   style="stroke-width:0.99968;stroke-miterlimit:4;stroke-dasharray:none"
   transform="matrix(1.0117607,0,0,1.0117607,-1.2595145,1.3989091)"
   inkscape:export-filename="/home/lucka/Documentos/dev/portifolio/src/assets/img/flags/us.png"
   inkscape:export-xdpi="96"
   inkscape:export-ydpi="96"><path
     style="fill:#f5f5f5;stroke-width:0.99968;stroke-miterlimit:4;stroke-dasharray:none"
     d="M 469.39408,85.867226 H 39.14413 c -20.931827,0 -37.899262,16.967454 -37.899262,37.899274 v 255.75118 c 0,20.93084 16.967435,37.89928 37.899262,37.89928 h 430.24995 c 20.93085,0 37.89928,-16.96745 37.89928,-37.89928 V 123.7665 c 0,-20.93182 -16.96745,-37.899274 -37.89928,-37.899274 z"
     id="path2-6"
     inkscape:export-filename="/home/lucka/Documentos/dev/portifolio/src/assets/img/flags/path2.png"
     inkscape:export-xdpi="150"
     inkscape:export-ydpi="150" /><g
     id="g18"
     transform="matrix(0.98837598,0,0,0.98837598,1.244868,-1.382652)"
     style="stroke-width:1.01144;stroke-miterlimit:4;stroke-dasharray:none"><path
       style="fill:#ff4b55;stroke-width:1.01144;stroke-miterlimit:4;stroke-dasharray:none"
       d="M 2.109,114.08 H 509.89 C 504.694,99.063 490.438,88.276 473.655,88.276 H 38.345 c -16.784,0 -31.039,10.787 -36.236,25.804 z"
       id="path4-7" /><rect
       y="191.49001"
       style="fill:#ff4b55;stroke-width:1.01144;stroke-miterlimit:4;stroke-dasharray:none"
       width="512"
       height="25.802999"
       id="rect6"
       x="0" /><rect
       y="139.88"
       style="fill:#ff4b55;stroke-width:1.01144;stroke-miterlimit:4;stroke-dasharray:none"
       width="512"
       height="25.802999"
       id="rect8"
       x="0" /><path
       style="fill:#ff4b55;stroke-width:1.01144;stroke-miterlimit:4;stroke-dasharray:none"
       d="m 0,260.074 c 0,4.875 3.953,8.828 8.828,8.828 H 512 V 243.098 H 0 Z"
       id="path10-5" /><rect
       y="346.32001"
       style="fill:#ff4b55;stroke-width:1.01144;stroke-miterlimit:4;stroke-dasharray:none"
       width="512"
       height="25.804001"
       id="rect12"
       x="0" /><path
       style="fill:#ff4b55;stroke-width:1.01144;stroke-miterlimit:4;stroke-dasharray:none"
       d="M 509.891,397.92 H 2.109 c 5.197,15.017 19.453,25.804 36.236,25.804 h 435.31 c 16.784,0 31.039,-10.787 36.236,-25.804 z"
       id="path14-3" /><rect
       y="294.70999"
       style="fill:#ff4b55;stroke-width:1.01144;stroke-miterlimit:4;stroke-dasharray:none"
       width="512"
       height="25.802999"
       id="rect16"
       x="0" /></g><path
     style="fill:#41479b;stroke-width:0.99968;stroke-miterlimit:4;stroke-dasharray:none"
     d="M 9.9702435,264.39363 H 228.09493 c 4.81833,0 8.72538,-3.90705 8.72538,-8.72539 V 94.591621 c 0,-4.819321 -3.90705,-8.725383 -8.72538,-8.725383 H 39.14413 C 18.212303,85.867226 1.244868,102.83468 1.244868,123.7665 v 131.90174 c 0,4.81933 3.9070503,8.72539 8.7253755,8.72539 z"
     id="path20-5" /><g
     id="g104"
     transform="matrix(0.98837598,0,0,0.98837598,1.244868,-1.382652)"
     style="stroke-width:1.01144;stroke-miterlimit:4;stroke-dasharray:none"><path
       style="fill:#f5f5f5;stroke-width:1.01144;stroke-miterlimit:4;stroke-dasharray:none"
       d="m 24.789,108.537 1.954,5.86 6.177,0.047 c 0.8,0.007 1.131,1.027 0.488,1.502 l -4.969,3.669 1.864,5.889 c 0.242,0.762 -0.627,1.394 -1.278,0.928 L 24,122.841 l -5.025,3.592 c -0.651,0.466 -1.518,-0.166 -1.278,-0.928 l 1.864,-5.889 -4.969,-3.669 c -0.643,-0.476 -0.312,-1.496 0.488,-1.502 l 6.177,-0.047 1.954,-5.86 c 0.252,-0.76 1.324,-0.76 1.578,-10e-4 z"
       id="path22-6" /><path
       style="fill:#f5f5f5;stroke-width:1.01144;stroke-miterlimit:4;stroke-dasharray:none"
       d="m 24.789,139.191 1.954,5.86 6.177,0.047 c 0.8,0.007 1.131,1.026 0.488,1.502 l -4.969,3.67 1.864,5.889 c 0.242,0.762 -0.627,1.394 -1.278,0.928 L 24,153.496 l -5.025,3.592 c -0.651,0.465 -1.518,-0.166 -1.278,-0.928 l 1.864,-5.889 -4.969,-3.67 c -0.643,-0.476 -0.312,-1.495 0.488,-1.502 l 6.177,-0.047 1.954,-5.86 c 0.252,-0.759 1.324,-0.759 1.578,-0.001 z"
       id="path24-2" /><path
       style="fill:#f5f5f5;stroke-width:1.01144;stroke-miterlimit:4;stroke-dasharray:none"
       d="m 24.789,169.846 1.954,5.86 6.177,0.047 c 0.8,0.007 1.131,1.026 0.488,1.502 l -4.969,3.67 1.864,5.889 c 0.242,0.762 -0.627,1.394 -1.278,0.928 L 24,184.151 l -5.025,3.592 c -0.651,0.465 -1.518,-0.165 -1.278,-0.928 l 1.864,-5.889 -4.969,-3.67 c -0.643,-0.476 -0.312,-1.495 0.488,-1.502 l 6.177,-0.047 1.954,-5.86 c 0.252,-0.76 1.324,-0.76 1.578,-0.001 z"
       id="path26-9" /><path
       style="fill:#f5f5f5;stroke-width:1.01144;stroke-miterlimit:4;stroke-dasharray:none"
       d="m 24.789,200.5 1.954,5.86 6.177,0.047 c 0.8,0.007 1.131,1.027 0.488,1.502 l -4.969,3.67 1.864,5.889 c 0.242,0.762 -0.627,1.394 -1.278,0.928 L 24,214.805 l -5.025,3.592 c -0.651,0.465 -1.518,-0.166 -1.278,-0.928 l 1.864,-5.889 -4.969,-3.67 c -0.643,-0.474 -0.312,-1.495 0.488,-1.502 l 6.177,-0.047 1.954,-5.86 c 0.252,-0.76 1.324,-0.76 1.578,-0.001 z"
       id="path28-1" /><path
       style="fill:#f5f5f5;stroke-width:1.01144;stroke-miterlimit:4;stroke-dasharray:none"
       d="m 24.789,231.154 1.954,5.86 6.177,0.047 c 0.8,0.007 1.131,1.026 0.488,1.502 l -4.969,3.67 1.864,5.889 c 0.242,0.762 -0.627,1.394 -1.278,0.928 L 24,245.459 l -5.025,3.592 c -0.651,0.465 -1.518,-0.166 -1.278,-0.928 l 1.864,-5.889 -4.969,-3.67 c -0.643,-0.476 -0.312,-1.495 0.488,-1.502 l 6.177,-0.047 1.954,-5.86 c 0.252,-0.759 1.324,-0.759 1.578,-0.001 z"
       id="path30-2" /><path
       style="fill:#f5f5f5;stroke-width:1.01144;stroke-miterlimit:4;stroke-dasharray:none"
       d="m 48.582,123.566 1.954,5.86 6.177,0.047 c 0.8,0.007 1.131,1.027 0.488,1.502 l -4.969,3.67 1.864,5.889 c 0.242,0.762 -0.627,1.394 -1.278,0.928 l -5.025,-3.592 -5.025,3.592 c -0.651,0.465 -1.518,-0.166 -1.278,-0.928 l 1.864,-5.889 -4.969,-3.67 c -0.643,-0.476 -0.312,-1.495 0.488,-1.502 l 6.177,-0.047 1.954,-5.86 c 0.252,-0.758 1.325,-0.758 1.578,0 z"
       id="path32" /><path
       style="fill:#f5f5f5;stroke-width:1.01144;stroke-miterlimit:4;stroke-dasharray:none"
       d="m 48.582,154.221 1.954,5.86 6.177,0.047 c 0.8,0.007 1.131,1.027 0.488,1.502 l -4.969,3.67 1.864,5.889 c 0.242,0.762 -0.627,1.394 -1.278,0.928 l -5.025,-3.592 -5.025,3.592 c -0.651,0.465 -1.518,-0.165 -1.278,-0.928 l 1.864,-5.889 -4.969,-3.67 c -0.643,-0.474 -0.312,-1.495 0.488,-1.502 l 6.177,-0.047 1.954,-5.86 c 0.252,-0.759 1.325,-0.759 1.578,0 z"
       id="path34" /><path
       style="fill:#f5f5f5;stroke-width:1.01144;stroke-miterlimit:4;stroke-dasharray:none"
       d="m 48.582,184.875 1.954,5.86 6.177,0.047 c 0.8,0.007 1.131,1.026 0.488,1.502 l -4.969,3.67 1.864,5.889 c 0.242,0.762 -0.627,1.394 -1.278,0.928 l -5.025,-3.592 -5.025,3.592 c -0.651,0.465 -1.518,-0.166 -1.278,-0.928 l 1.864,-5.889 -4.969,-3.67 c -0.643,-0.476 -0.312,-1.495 0.488,-1.502 l 6.177,-0.047 1.954,-5.86 c 0.252,-0.759 1.325,-0.759 1.578,0 z"
       id="path36" /><path
       style="fill:#f5f5f5;stroke-width:1.01144;stroke-miterlimit:4;stroke-dasharray:none"
       d="m 48.582,215.529 1.954,5.86 6.177,0.047 c 0.8,0.007 1.131,1.026 0.488,1.502 l -4.969,3.67 1.864,5.889 c 0.242,0.762 -0.627,1.394 -1.278,0.928 l -5.025,-3.592 -5.025,3.592 c -0.651,0.466 -1.518,-0.166 -1.278,-0.928 l 1.864,-5.889 -4.969,-3.67 c -0.643,-0.476 -0.312,-1.495 0.488,-1.502 l 6.177,-0.047 1.954,-5.86 c 0.252,-0.758 1.325,-0.758 1.578,0 z"
       id="path38" /><path
       style="fill:#f5f5f5;stroke-width:1.01144;stroke-miterlimit:4;stroke-dasharray:none"
       d="m 72.375,108.537 1.954,5.86 6.177,0.047 c 0.8,0.007 1.131,1.027 0.488,1.502 l -4.969,3.669 1.864,5.889 c 0.242,0.762 -0.627,1.394 -1.278,0.928 l -5.025,-3.592 -5.025,3.592 c -0.651,0.466 -1.518,-0.166 -1.278,-0.928 l 1.864,-5.889 -4.969,-3.669 c -0.643,-0.476 -0.312,-1.496 0.488,-1.502 l 6.177,-0.047 1.954,-5.86 c 0.252,-0.759 1.325,-0.759 1.578,0 z"
       id="path40" /><path
       style="fill:#f5f5f5;stroke-width:1.01144;stroke-miterlimit:4;stroke-dasharray:none"
       d="m 72.375,139.191 1.954,5.86 6.177,0.047 c 0.8,0.007 1.131,1.026 0.488,1.502 l -4.969,3.67 1.864,5.889 c 0.242,0.762 -0.627,1.394 -1.278,0.928 l -5.025,-3.592 -5.025,3.592 c -0.651,0.465 -1.518,-0.166 -1.278,-0.928 l 1.864,-5.889 -4.969,-3.67 c -0.643,-0.476 -0.312,-1.495 0.488,-1.502 l 6.177,-0.047 1.954,-5.86 c 0.252,-0.758 1.325,-0.758 1.578,0 z"
       id="path42" /><path
       style="fill:#f5f5f5;stroke-width:1.01144;stroke-miterlimit:4;stroke-dasharray:none"
       d="m 72.375,169.846 1.954,5.86 6.177,0.047 c 0.8,0.007 1.131,1.026 0.488,1.502 l -4.969,3.67 1.864,5.889 c 0.242,0.762 -0.627,1.394 -1.278,0.928 l -5.025,-3.592 -5.025,3.592 c -0.651,0.465 -1.518,-0.165 -1.278,-0.928 l 1.864,-5.889 -4.969,-3.67 c -0.643,-0.476 -0.312,-1.495 0.488,-1.502 l 6.177,-0.047 1.954,-5.86 c 0.252,-0.759 1.325,-0.759 1.578,0 z"
       id="path44" /><path
       style="fill:#f5f5f5;stroke-width:1.01144;stroke-miterlimit:4;stroke-dasharray:none"
       d="m 72.375,200.5 1.954,5.86 6.177,0.047 c 0.8,0.007 1.131,1.027 0.488,1.502 l -4.969,3.67 1.864,5.889 c 0.242,0.762 -0.627,1.394 -1.278,0.928 l -5.025,-3.592 -5.025,3.592 c -0.651,0.465 -1.518,-0.166 -1.278,-0.928 l 1.864,-5.889 -4.969,-3.67 c -0.643,-0.474 -0.312,-1.495 0.488,-1.502 l 6.177,-0.047 1.954,-5.86 c 0.252,-0.759 1.325,-0.759 1.578,0 z"
       id="path46" /><path
       style="fill:#f5f5f5;stroke-width:1.01144;stroke-miterlimit:4;stroke-dasharray:none"
       d="m 72.375,231.154 1.954,5.86 6.177,0.047 c 0.8,0.007 1.131,1.026 0.488,1.502 l -4.969,3.67 1.864,5.889 c 0.242,0.762 -0.627,1.394 -1.278,0.928 l -5.025,-3.592 -5.025,3.592 c -0.651,0.465 -1.518,-0.166 -1.278,-0.928 l 1.864,-5.889 -4.969,-3.67 c -0.643,-0.476 -0.312,-1.495 0.488,-1.502 l 6.177,-0.047 1.954,-5.86 c 0.252,-0.758 1.325,-0.758 1.578,0 z"
       id="path48" /><path
       style="fill:#f5f5f5;stroke-width:1.01144;stroke-miterlimit:4;stroke-dasharray:none"
       d="m 96.169,123.566 1.954,5.86 6.177,0.047 c 0.8,0.007 1.131,1.027 0.488,1.502 l -4.969,3.67 1.864,5.889 c 0.242,0.762 -0.627,1.394 -1.278,0.928 l -5.025,-3.592 -5.025,3.592 c -0.651,0.465 -1.518,-0.166 -1.278,-0.928 l 1.864,-5.889 -4.969,-3.67 c -0.643,-0.476 -0.312,-1.495 0.488,-1.502 l 6.177,-0.047 1.954,-5.86 c 0.251,-0.758 1.325,-0.758 1.578,0 z"
       id="path50" /><path
       style="fill:#f5f5f5;stroke-width:1.01144;stroke-miterlimit:4;stroke-dasharray:none"
       d="m 96.169,154.221 1.954,5.86 6.177,0.047 c 0.8,0.007 1.131,1.027 0.488,1.502 l -4.969,3.67 1.864,5.889 c 0.242,0.762 -0.627,1.394 -1.278,0.928 l -5.025,-3.592 -5.025,3.592 c -0.651,0.465 -1.518,-0.165 -1.278,-0.928 l 1.864,-5.889 -4.969,-3.67 c -0.643,-0.474 -0.312,-1.495 0.488,-1.502 l 6.177,-0.047 1.954,-5.86 c 0.251,-0.759 1.325,-0.759 1.578,0 z"
       id="path52" /><path
       style="fill:#f5f5f5;stroke-width:1.01144;stroke-miterlimit:4;stroke-dasharray:none"
       d="m 96.169,184.875 1.954,5.86 6.177,0.047 c 0.8,0.007 1.131,1.026 0.488,1.502 l -4.969,3.67 1.864,5.889 c 0.242,0.762 -0.627,1.394 -1.278,0.928 l -5.025,-3.592 -5.025,3.592 c -0.651,0.465 -1.518,-0.166 -1.278,-0.928 l 1.864,-5.889 -4.969,-3.67 c -0.643,-0.476 -0.312,-1.495 0.488,-1.502 l 6.177,-0.047 1.954,-5.86 c 0.251,-0.759 1.325,-0.759 1.578,0 z"
       id="path54" /><path
       style="fill:#f5f5f5;stroke-width:1.01144;stroke-miterlimit:4;stroke-dasharray:none"
       d="m 96.169,215.529 1.954,5.86 6.177,0.047 c 0.8,0.007 1.131,1.026 0.488,1.502 l -4.969,3.67 1.864,5.889 c 0.242,0.762 -0.627,1.394 -1.278,0.928 l -5.025,-3.592 -5.025,3.592 c -0.651,0.466 -1.518,-0.166 -1.278,-0.928 l 1.864,-5.889 -4.969,-3.67 c -0.643,-0.476 -0.312,-1.495 0.488,-1.502 l 6.177,-0.047 1.954,-5.86 c 0.251,-0.758 1.325,-0.758 1.578,0 z"
       id="path56" /><path
       style="fill:#f5f5f5;stroke-width:1.01144;stroke-miterlimit:4;stroke-dasharray:none"
       d="m 119.962,108.537 1.954,5.86 6.177,0.047 c 0.8,0.007 1.131,1.027 0.488,1.502 l -4.969,3.669 1.864,5.889 c 0.242,0.762 -0.627,1.394 -1.278,0.928 l -5.026,-3.591 -5.025,3.592 c -0.651,0.466 -1.518,-0.166 -1.278,-0.928 l 1.864,-5.889 -4.969,-3.669 c -0.643,-0.476 -0.312,-1.496 0.488,-1.502 l 6.177,-0.047 1.954,-5.86 c 0.253,-0.76 1.326,-0.76 1.579,-10e-4 z"
       id="path58" /><path
       style="fill:#f5f5f5;stroke-width:1.01144;stroke-miterlimit:4;stroke-dasharray:none"
       d="m 119.962,139.191 1.954,5.86 6.177,0.047 c 0.8,0.007 1.131,1.026 0.488,1.502 l -4.969,3.67 1.864,5.889 c 0.242,0.762 -0.627,1.394 -1.278,0.928 l -5.026,-3.592 -5.025,3.592 c -0.651,0.465 -1.518,-0.166 -1.278,-0.928 l 1.864,-5.889 -4.969,-3.67 c -0.643,-0.476 -0.312,-1.495 0.488,-1.502 l 6.177,-0.047 1.954,-5.86 c 0.253,-0.758 1.326,-0.758 1.579,0 z"
       id="path60" /><path
       style="fill:#f5f5f5;stroke-width:1.01144;stroke-miterlimit:4;stroke-dasharray:none"
       d="m 119.962,169.846 1.954,5.86 6.177,0.047 c 0.8,0.007 1.131,1.026 0.488,1.502 l -4.969,3.67 1.864,5.889 c 0.242,0.762 -0.627,1.394 -1.278,0.928 l -5.026,-3.593 -5.025,3.592 c -0.651,0.465 -1.518,-0.166 -1.278,-0.928 l 1.864,-5.889 -4.969,-3.67 c -0.643,-0.476 -0.312,-1.495 0.488,-1.502 l 6.177,-0.047 1.954,-5.86 c 0.253,-0.758 1.326,-0.758 1.579,0.001 z"
       id="path62" /><path
       style="fill:#f5f5f5;stroke-width:1.01144;stroke-miterlimit:4;stroke-dasharray:none"
       d="m 119.962,200.5 1.954,5.86 6.177,0.047 c 0.8,0.007 1.131,1.027 0.488,1.502 l -4.969,3.67 1.864,5.889 c 0.242,0.762 -0.627,1.394 -1.278,0.928 l -5.026,-3.592 -5.025,3.592 c -0.651,0.465 -1.518,-0.166 -1.278,-0.928 l 1.864,-5.889 -4.969,-3.67 c -0.643,-0.474 -0.312,-1.495 0.488,-1.502 l 6.177,-0.047 1.954,-5.86 c 0.253,-0.759 1.326,-0.759 1.579,0 z"
       id="path64" /><path
       style="fill:#f5f5f5;stroke-width:1.01144;stroke-miterlimit:4;stroke-dasharray:none"
       d="m 119.962,231.154 1.954,5.86 6.177,0.047 c 0.8,0.007 1.131,1.026 0.488,1.502 l -4.969,3.67 1.864,5.889 c 0.242,0.762 -0.627,1.394 -1.278,0.928 l -5.026,-3.592 -5.025,3.592 c -0.651,0.465 -1.518,-0.166 -1.278,-0.928 l 1.864,-5.889 -4.969,-3.67 c -0.643,-0.476 -0.312,-1.495 0.488,-1.502 l 6.177,-0.047 1.954,-5.86 c 0.253,-0.758 1.326,-0.758 1.579,0 z"
       id="path66" /><path
       style="fill:#f5f5f5;stroke-width:1.01144;stroke-miterlimit:4;stroke-dasharray:none"
       d="m 143.755,123.566 1.954,5.86 6.177,0.047 c 0.8,0.007 1.131,1.027 0.488,1.502 l -4.969,3.67 1.864,5.889 c 0.242,0.762 -0.627,1.394 -1.278,0.928 l -5.025,-3.592 -5.025,3.592 c -0.651,0.465 -1.518,-0.166 -1.278,-0.928 l 1.864,-5.889 -4.969,-3.67 c -0.643,-0.476 -0.312,-1.495 0.488,-1.502 l 6.177,-0.047 1.954,-5.86 c 0.253,-0.758 1.325,-0.758 1.578,0 z"
       id="path68" /><path
       style="fill:#f5f5f5;stroke-width:1.01144;stroke-miterlimit:4;stroke-dasharray:none"
       d="m 143.755,154.221 1.954,5.86 6.177,0.047 c 0.8,0.007 1.131,1.027 0.488,1.502 l -4.969,3.67 1.864,5.889 c 0.242,0.762 -0.627,1.394 -1.278,0.928 l -5.025,-3.592 -5.025,3.592 c -0.651,0.465 -1.518,-0.165 -1.278,-0.928 l 1.864,-5.889 -4.969,-3.67 c -0.643,-0.474 -0.312,-1.495 0.488,-1.502 l 6.177,-0.047 1.954,-5.86 c 0.253,-0.759 1.325,-0.759 1.578,0 z"
       id="path70" /><path
       style="fill:#f5f5f5;stroke-width:1.01144;stroke-miterlimit:4;stroke-dasharray:none"
       d="m 143.755,184.875 1.954,5.86 6.177,0.047 c 0.8,0.007 1.131,1.026 0.488,1.502 l -4.969,3.67 1.864,5.889 c 0.242,0.762 -0.627,1.394 -1.278,0.928 l -5.025,-3.592 -5.025,3.592 c -0.651,0.465 -1.518,-0.166 -1.278,-0.928 l 1.864,-5.889 -4.969,-3.67 c -0.643,-0.476 -0.312,-1.495 0.488,-1.502 l 6.177,-0.047 1.954,-5.86 c 0.253,-0.759 1.325,-0.759 1.578,0 z"
       id="path72" /><path
       style="fill:#f5f5f5;stroke-width:1.01144;stroke-miterlimit:4;stroke-dasharray:none"
       d="m 143.755,215.529 1.954,5.86 6.177,0.047 c 0.8,0.007 1.131,1.026 0.488,1.502 l -4.969,3.67 1.864,5.889 c 0.242,0.762 -0.627,1.394 -1.278,0.928 l -5.025,-3.592 -5.025,3.592 c -0.651,0.466 -1.518,-0.166 -1.278,-0.928 l 1.864,-5.889 -4.969,-3.67 c -0.643,-0.476 -0.312,-1.495 0.488,-1.502 l 6.177,-0.047 1.954,-5.86 c 0.253,-0.758 1.325,-0.758 1.578,0 z"
       id="path74" /><path
       style="fill:#f5f5f5;stroke-width:1.01144;stroke-miterlimit:4;stroke-dasharray:none"
       d="m 167.549,108.537 1.954,5.86 6.177,0.047 c 0.8,0.007 1.131,1.027 0.488,1.502 l -4.969,3.669 1.864,5.889 c 0.242,0.762 -0.627,1.394 -1.278,0.928 l -5.025,-3.592 -5.025,3.592 c -0.651,0.466 -1.518,-0.166 -1.278,-0.928 l 1.864,-5.889 -4.969,-3.669 c -0.643,-0.476 -0.312,-1.496 0.488,-1.502 l 6.177,-0.047 1.954,-5.86 c 0.251,-0.759 1.325,-0.759 1.578,0 z"
       id="path76" /><path
       style="fill:#f5f5f5;stroke-width:1.01144;stroke-miterlimit:4;stroke-dasharray:none"
       d="m 167.549,139.191 1.954,5.86 6.177,0.047 c 0.8,0.007 1.131,1.026 0.488,1.502 l -4.969,3.67 1.864,5.889 c 0.242,0.762 -0.627,1.394 -1.278,0.928 l -5.025,-3.592 -5.025,3.592 c -0.651,0.465 -1.518,-0.166 -1.278,-0.928 l 1.864,-5.889 -4.969,-3.67 c -0.643,-0.476 -0.312,-1.495 0.488,-1.502 l 6.177,-0.047 1.954,-5.86 c 0.251,-0.758 1.325,-0.758 1.578,0 z"
       id="path78" /><path
       style="fill:#f5f5f5;stroke-width:1.01144;stroke-miterlimit:4;stroke-dasharray:none"
       d="m 167.549,169.846 1.954,5.86 6.177,0.047 c 0.8,0.007 1.131,1.026 0.488,1.502 l -4.969,3.67 1.864,5.889 c 0.242,0.762 -0.627,1.394 -1.278,0.928 l -5.025,-3.592 -5.025,3.592 c -0.651,0.465 -1.518,-0.165 -1.278,-0.928 l 1.864,-5.889 -4.969,-3.67 c -0.643,-0.476 -0.312,-1.495 0.488,-1.502 l 6.177,-0.047 1.954,-5.86 c 0.251,-0.759 1.325,-0.759 1.578,0 z"
       id="path80" /><path
       style="fill:#f5f5f5;stroke-width:1.01144;stroke-miterlimit:4;stroke-dasharray:none"
       d="m 167.549,200.5 1.954,5.86 6.177,0.047 c 0.8,0.007 1.131,1.027 0.488,1.502 l -4.969,3.67 1.864,5.889 c 0.242,0.762 -0.627,1.394 -1.278,0.928 l -5.025,-3.592 -5.025,3.592 c -0.651,0.465 -1.518,-0.166 -1.278,-0.928 l 1.864,-5.889 -4.969,-3.67 c -0.643,-0.474 -0.312,-1.495 0.488,-1.502 l 6.177,-0.047 1.954,-5.86 c 0.251,-0.759 1.325,-0.759 1.578,0 z"
       id="path82" /><path
       style="fill:#f5f5f5;stroke-width:1.01144;stroke-miterlimit:4;stroke-dasharray:none"
       d="m 167.549,231.154 1.954,5.86 6.177,0.047 c 0.8,0.007 1.131,1.026 0.488,1.502 l -4.969,3.67 1.864,5.889 c 0.242,0.762 -0.627,1.394 -1.278,0.928 l -5.025,-3.592 -5.025,3.592 c -0.651,0.465 -1.518,-0.166 -1.278,-0.928 l 1.864,-5.889 -4.969,-3.67 c -0.643,-0.476 -0.312,-1.495 0.488,-1.502 l 6.177,-0.047 1.954,-5.86 c 0.251,-0.758 1.325,-0.758 1.578,0 z"
       id="path84" /><path
       style="fill:#f5f5f5;stroke-width:1.01144;stroke-miterlimit:4;stroke-dasharray:none"
       d="m 191.342,123.566 1.954,5.86 6.177,0.047 c 0.8,0.007 1.131,1.027 0.488,1.502 l -4.969,3.67 1.864,5.889 c 0.242,0.762 -0.627,1.394 -1.278,0.928 l -5.025,-3.592 -5.025,3.592 c -0.651,0.465 -1.518,-0.166 -1.278,-0.928 l 1.864,-5.889 -4.969,-3.67 c -0.643,-0.476 -0.312,-1.495 0.488,-1.502 l 6.177,-0.047 1.954,-5.86 c 0.252,-0.758 1.325,-0.758 1.578,0 z"
       id="path86" /><path
       style="fill:#f5f5f5;stroke-width:1.01144;stroke-miterlimit:4;stroke-dasharray:none"
       d="m 191.342,154.221 1.954,5.86 6.177,0.047 c 0.8,0.007 1.131,1.027 0.488,1.502 l -4.969,3.67 1.864,5.889 c 0.242,0.762 -0.627,1.394 -1.278,0.928 l -5.025,-3.592 -5.025,3.592 c -0.651,0.465 -1.518,-0.165 -1.278,-0.928 l 1.864,-5.889 -4.969,-3.67 c -0.643,-0.474 -0.312,-1.495 0.488,-1.502 l 6.177,-0.047 1.954,-5.86 c 0.252,-0.759 1.325,-0.759 1.578,0 z"
       id="path88" /><path
       style="fill:#f5f5f5;stroke-width:1.01144;stroke-miterlimit:4;stroke-dasharray:none"
       d="m 191.342,184.875 1.954,5.86 6.177,0.047 c 0.8,0.007 1.131,1.026 0.488,1.502 l -4.969,3.67 1.864,5.889 c 0.242,0.762 -0.627,1.394 -1.278,0.928 l -5.025,-3.592 -5.025,3.592 c -0.651,0.465 -1.518,-0.166 -1.278,-0.928 l 1.864,-5.889 -4.969,-3.67 c -0.643,-0.476 -0.312,-1.495 0.488,-1.502 l 6.177,-0.047 1.954,-5.86 c 0.252,-0.759 1.325,-0.759 1.578,0 z"
       id="path90" /><path
       style="fill:#f5f5f5;stroke-width:1.01144;stroke-miterlimit:4;stroke-dasharray:none"
       d="m 191.342,215.529 1.954,5.86 6.177,0.047 c 0.8,0.007 1.131,1.026 0.488,1.502 l -4.969,3.67 1.864,5.889 c 0.242,0.762 -0.627,1.394 -1.278,0.928 l -5.025,-3.592 -5.025,3.592 c -0.651,0.466 -1.518,-0.166 -1.278,-0.928 l 1.864,-5.889 -4.969,-3.67 c -0.643,-0.476 -0.312,-1.495 0.488,-1.502 l 6.177,-0.047 1.954,-5.86 c 0.252,-0.758 1.325,-0.758 1.578,0 z"
       id="path92" /><path
       style="fill:#f5f5f5;stroke-width:1.01144;stroke-miterlimit:4;stroke-dasharray:none"
       d="m 215.136,108.537 1.954,5.86 6.177,0.047 c 0.8,0.007 1.131,1.027 0.488,1.502 l -4.969,3.669 1.864,5.889 c 0.242,0.762 -0.627,1.394 -1.278,0.928 l -5.025,-3.592 -5.025,3.592 c -0.651,0.466 -1.518,-0.166 -1.278,-0.928 l 1.864,-5.889 -4.969,-3.669 c -0.643,-0.476 -0.312,-1.496 0.488,-1.502 l 6.177,-0.047 1.954,-5.86 c 0.252,-0.759 1.324,-0.759 1.578,0 z"
       id="path94" /><path
       style="fill:#f5f5f5;stroke-width:1.01144;stroke-miterlimit:4;stroke-dasharray:none"
       d="m 215.136,139.191 1.954,5.86 6.177,0.047 c 0.8,0.007 1.131,1.026 0.488,1.502 l -4.969,3.67 1.864,5.889 c 0.242,0.762 -0.627,1.394 -1.278,0.928 l -5.025,-3.592 -5.025,3.592 c -0.651,0.465 -1.518,-0.166 -1.278,-0.928 l 1.864,-5.889 -4.969,-3.67 c -0.643,-0.476 -0.312,-1.495 0.488,-1.502 l 6.177,-0.047 1.954,-5.86 c 0.252,-0.758 1.324,-0.758 1.578,0 z"
       id="path96" /><path
       style="fill:#f5f5f5;stroke-width:1.01144;stroke-miterlimit:4;stroke-dasharray:none"
       d="m 215.136,169.846 1.954,5.86 6.177,0.047 c 0.8,0.007 1.131,1.026 0.488,1.502 l -4.969,3.67 1.864,5.889 c 0.242,0.762 -0.627,1.394 -1.278,0.928 l -5.025,-3.592 -5.025,3.592 c -0.651,0.465 -1.518,-0.165 -1.278,-0.928 l 1.864,-5.889 -4.969,-3.67 c -0.643,-0.476 -0.312,-1.495 0.488,-1.502 l 6.177,-0.047 1.954,-5.86 c 0.252,-0.759 1.324,-0.759 1.578,0 z"
       id="path98" /><path
       style="fill:#f5f5f5;stroke-width:1.01144;stroke-miterlimit:4;stroke-dasharray:none"
       d="m 215.136,200.5 1.954,5.86 6.177,0.047 c 0.8,0.007 1.131,1.027 0.488,1.502 l -4.969,3.67 1.864,5.889 c 0.242,0.762 -0.627,1.394 -1.278,0.928 l -5.025,-3.592 -5.025,3.592 c -0.651,0.465 -1.518,-0.166 -1.278,-0.928 l 1.864,-5.889 -4.969,-3.67 c -0.643,-0.474 -0.312,-1.495 0.488,-1.502 l 6.177,-0.047 1.954,-5.86 c 0.252,-0.759 1.324,-0.759 1.578,0 z"
       id="path100" /><path
       style="fill:#f5f5f5;stroke-width:1.01144;stroke-miterlimit:4;stroke-dasharray:none"
       d="m 215.136,231.154 1.954,5.86 6.177,0.047 c 0.8,0.007 1.131,1.026 0.488,1.502 l -4.969,3.67 1.864,5.889 c 0.242,0.762 -0.627,1.394 -1.278,0.928 l -5.025,-3.592 -5.025,3.592 c -0.651,0.465 -1.518,-0.166 -1.278,-0.928 l 1.864,-5.889 -4.969,-3.67 c -0.643,-0.476 -0.312,-1.495 0.488,-1.502 l 6.177,-0.047 1.954,-5.86 c 0.252,-0.758 1.324,-0.758 1.578,0 z"
       id="path102" /></g></g></svg>
