<?xml version="1.0" encoding="UTF-8" standalone="no"?>
<svg
   width="512"
   height="512"
   viewBox="0 0 512 512"
   version="1.1"
   id="svg6"
   sodipodi:docname="Laravel.svg"
   inkscape:version="1.1.2 (0a00cf5339, 2022-02-04)"
   xmlns:inkscape="http://www.inkscape.org/namespaces/inkscape"
   xmlns:sodipodi="http://sodipodi.sourceforge.net/DTD/sodipodi-0.dtd"
   xmlns="http://www.w3.org/2000/svg"
   xmlns:svg="http://www.w3.org/2000/svg"
   xmlns:rdf="http://www.w3.org/1999/02/22-rdf-syntax-ns#"
   xmlns:cc="http://creativecommons.org/ns#"
   xmlns:dc="http://purl.org/dc/elements/1.1/">
  <defs
     id="defs10" />
  <sodipodi:namedview
     id="namedview8"
     pagecolor="#ffffff"
     bordercolor="#666666"
     borderopacity="1.0"
     inkscape:pageshadow="2"
     inkscape:pageopacity="0.0"
     inkscape:pagecheckerboard="0"
     showgrid="false"
     inkscape:zoom="0.61786855"
     inkscape:cx="224.15771"
     inkscape:cy="269.47479"
     inkscape:window-width="1854"
     inkscape:window-height="1052"
     inkscape:window-x="0"
     inkscape:window-y="0"
     inkscape:window-maximized="1"
     inkscape:current-layer="svg6" />
  <title
     id="title2">Logomark</title>
  <path
     d="m 501.92413,117.22244 a 8.0226069,8.0226069 0 0 1 0.27767,2.07259 v 108.80598 a 7.9333565,7.9333565 0 0 1 -3.98651,6.88219 l -91.32285,52.57832 v 104.21456 c 0,2.83617 -1.50734,5.45418 -3.96669,6.88219 L 212.29711,508.39642 c -0.43633,0.24792 -0.91233,0.40659 -1.38834,0.57517 -0.17849,0.0595 -0.34707,0.16858 -0.53549,0.21817 a 7.98294,7.98294 0 0 1 -4.06585,0 c -0.21817,-0.0595 -0.4165,-0.1785 -0.62475,-0.25784 -0.43634,-0.15866 -0.8925,-0.2975 -1.309,-0.5355 L 13.784707,398.65827 A 7.9432733,7.9432733 0 0 1 9.798195,391.77608 V 65.358122 c 0,-0.714002 0.099167,-1.40817 0.277667,-2.082506 0.0595,-0.228084 0.198334,-0.436335 0.277668,-0.664418 0.14875,-0.416502 0.287584,-0.842919 0.505751,-1.22967 0.148751,-0.257835 0.366918,-0.466085 0.545419,-0.704086 0.228084,-0.317334 0.436334,-0.644585 0.704085,-0.922253 0.228084,-0.228084 0.525585,-0.396667 0.783419,-0.595001 0.287584,-0.238001 0.545418,-0.495835 0.872669,-0.684252 h 0.0099 L 109.07424,3.6068581 a 7.95319,7.95319 0 0 1 7.93335,0 l 95.29944,54.8690779 h 0.0198 c 0.31733,0.198334 0.58508,0.446251 0.87267,0.674335 0.25783,0.198334 0.54542,0.376834 0.77349,0.595001 0.27768,0.287585 0.47601,0.614836 0.71401,0.93217 0.16858,0.238001 0.39667,0.446251 0.53551,0.704086 0.22807,0.396667 0.35699,0.813168 0.51566,1.22967 0.0793,0.228083 0.21817,0.436334 0.27767,0.674335 a 8.0226069,8.0226069 0 0 1 0.27766,2.072589 V 269.23547 l 79.4129,-45.72588 V 119.28511 c 0,-0.69417 0.0992,-1.39825 0.27767,-2.06267 0.0695,-0.238 0.19833,-0.44625 0.27767,-0.67433 0.15866,-0.4165 0.2975,-0.84292 0.51567,-1.22967 0.14874,-0.25784 0.36691,-0.46609 0.5355,-0.70409 0.238,-0.31734 0.43634,-0.64459 0.714,-0.92225 0.22809,-0.22809 0.51567,-0.39667 0.77351,-0.595 0.2975,-0.238 0.55533,-0.49584 0.87266,-0.68426 h 0.01 l 95.30937,-54.869074 a 7.9432733,7.9432733 0 0 1 7.93335,0 l 95.29944,54.869074 c 0.33717,0.19833 0.595,0.44626 0.89251,0.67434 0.24791,0.19833 0.53549,0.37683 0.76358,0.595 0.27767,0.28758 0.47601,0.61483 0.71401,0.93217 0.1785,0.238 0.39667,0.44625 0.53549,0.70409 0.22809,0.38675 0.35701,0.81317 0.51568,1.22967 0.0892,0.22808 0.21816,0.43633 0.27766,0.67433 z m -15.60888,106.28715 v -90.47994 l -33.34985,19.19873 -46.07296,26.52716 v 90.47993 l 79.43273,-45.72588 z M 391.0158,387.18465 v -90.53943 l -45.31929,25.88257 -129.41289,73.85955 v 91.39227 z M 25.684742,79.092746 V 387.18465 L 200.39708,487.76969 v -91.37244 l -91.27327,-51.65606 -0.0297,-0.0198 -0.0397,-0.0198 c -0.30741,-0.1785 -0.56525,-0.43633 -0.85283,-0.6545 -0.24791,-0.19833 -0.5355,-0.357 -0.75367,-0.57517 l -0.0198,-0.0298 c -0.25784,-0.24791 -0.43634,-0.55533 -0.65451,-0.833 -0.19833,-0.26775 -0.43633,-0.49583 -0.595,-0.7735 l -0.01,-0.0298 c -0.1785,-0.2975 -0.28759,-0.6545 -0.4165,-0.99167 -0.12892,-0.2975 -0.2975,-0.57516 -0.37684,-0.8925 v -0.01 c -0.0992,-0.37683 -0.119,-0.7735 -0.15866,-1.16025 -0.0397,-0.2975 -0.119,-0.595 -0.119,-0.89251 v -0.0198 -213.02055 L 59.03459,98.281552 25.684742,79.102662 Z M 113.05082,19.652072 33.647848,65.358122 113.03099,111.06417 192.42406,65.348206 113.03099,19.652072 Z M 154.34395,304.89591 200.407,278.37867 V 79.092746 l -33.34985,19.198722 -46.07297,26.527162 v 199.28592 z m 244.61513,-231.30693 -79.39307,45.70605 79.39307,45.70605 79.38315,-45.71597 z m -7.94328,105.16656 -46.07296,-26.52716 -33.34985,-19.19873 v 90.47994 l 46.06305,26.51724 33.35976,19.20864 z m -182.68536,203.89718 116.45176,-66.48153 58.211,-33.22093 -79.33357,-45.6763 -91.34268,52.58823 -83.25066,47.9274 z"
     fill="#ff2d20"
     fill-rule="evenodd"
     id="path4"
     style="stroke-width:9.91674" />
  <metadata
     id="metadata12">
    <rdf:RDF>
      <cc:Work
         rdf:about="">
        <dc:title>Logomark</dc:title>
      </cc:Work>
    </rdf:RDF>
  </metadata>
</svg>
