<?xml version="1.0" encoding="UTF-8" standalone="no"?>
<svg
   width="512"
   height="512"
   version="1.1"
   viewBox="-7.93 -7.93 201.88618 203.03448"
   id="svg10"
   sodipodi:docname="MySQL_textlogo.svg"
   inkscape:version="1.1.2 (0a00cf5339, 2022-02-04)"
   xmlns:inkscape="http://www.inkscape.org/namespaces/inkscape"
   xmlns:sodipodi="http://sodipodi.sourceforge.net/DTD/sodipodi-0.dtd"
   xmlns="http://www.w3.org/2000/svg"
   xmlns:svg="http://www.w3.org/2000/svg"
   xmlns:rdf="http://www.w3.org/1999/02/22-rdf-syntax-ns#"
   xmlns:cc="http://creativecommons.org/ns#"
   xmlns:dc="http://purl.org/dc/elements/1.1/">
  <defs
     id="defs14" />
  <sodipodi:namedview
     id="namedview12"
     pagecolor="#ffffff"
     bordercolor="#666666"
     borderopacity="1.0"
     inkscape:pageshadow="2"
     inkscape:pageopacity="0.0"
     inkscape:pagecheckerboard="0"
     showgrid="false"
     inkscape:zoom="1.131802"
     inkscape:cx="135.18265"
     inkscape:cy="285.82738"
     inkscape:window-width="1854"
     inkscape:window-height="1052"
     inkscape:window-x="0"
     inkscape:window-y="0"
     inkscape:window-maximized="1"
     inkscape:current-layer="svg10" />
  <title
     id="title2">MySQL textlogo</title>
  <g
     id="g21"
     transform="matrix(0.51424048,0,0,0.51424048,-2.1172849,140.28644)">
    <path
       d="m 150,16.9 c -6.1,33.2 -14.1,57.3 -24.1,72.3 -7.78,11.6 -16.3,17.4 -25.6,17.4 -2.47,0 -5.52,-0.747 -9.14,-2.23 v -8 c 1.77,0.26 3.84,0.398 6.23,0.398 4.33,0 7.82,-1.2 10.5,-3.59 3.18,-2.92 4.77,-6.2 4.77,-9.83 0,-2.48 -1.24,-7.58 -3.71,-15.3 l -16.4,-51.2 h 14.7 l 11.8,38.3 c 2.65,8.69 3.76,14.8 3.31,18.2 6.45,-17.3 11,-36.1 13.5,-56.5 h 14.2 m -65,66.2 h -15 c -0.527,-25.3 -1.99,-49.2 -4.37,-71.5 h -0.132 l -22.8,71.5 h -11.4 l -22.7,-71.5 H 8.524 c -1.68,21.4 -2.74,45.3 -3.18,71.5 h -13.7 c 0.882,-31.9 3.09,-61.8 6.62,-89.7 h 18.6 l 21.6,65.9 h 0.133 l 21.7,-65.9 h 17.8 c 3.89,32.7 6.19,62.6 6.89,89.7"
       style="fill:#00758f"
       id="path4" />
    <path
       d="M 350,83.1 H 307.5 V -6.6 h 14.3 V 72.1 H 350 v 11 M 243,65.2 C 239.38,59.35 237.56,50 237.56,37 c 0,-22.6 6.85,-33.9 20.5,-33.9 7.16,0 12.4,2.7 15.8,8.1 3.62,5.85 5.44,15.2 5.44,27.9 0,22.8 -6.85,34.2 -20.5,34.2 -7.16,0 -12.4,-2.7 -15.8,-8.11 m 53.3,20.1 -16.4,-8.13 c 1.46,-1.2 2.86,-2.5 4.11,-4.01 6.98,-8.23 10.5,-20.4 10.5,-36.5 0,-29.7 -11.6,-44.5 -34.9,-44.5 -11.4,0 -20.3,3.76 -26.6,11.3 -6.99,8.24 -10.5,20.4 -10.5,36.4 0,15.8 3.09,27.3 9.28,34.7 5.64,6.64 14.2,9.97 25.6,9.97 4.26,0 8.16,-0.526 11.7,-1.58 l 21.4,12.5 5.84,-10.1 m -80,-27 c 0,7.61 -2.79,13.9 -8.35,18.7 -5.56,4.87 -13,7.3 -22.4,7.3 -8.75,0 -17.2,-2.81 -25.5,-8.38 l 3.84,-7.71 c 7.07,3.54 13.5,5.31 19.2,5.31 5.39,0 9.61,-1.2 12.7,-3.58 3.04,-2.39 4.87,-5.73 4.87,-9.96 0,-5.33 -3.71,-9.88 -10.5,-13.7 -6.28,-3.45 -18.8,-10.7 -18.8,-10.7 -6.8,-4.97 -10.2,-10.3 -10.2,-19.1 0,-7.27 2.54,-13.1 7.62,-17.6 5.09,-4.48 11.6,-6.72 19.7,-6.72 8.31,0 15.9,2.22 22.7,6.65 l -3.46,7.7 c -5.82,-2.47 -11.6,-3.72 -17.2,-3.72 -4.59,0 -8.13,1.11 -10.6,3.33 -2.48,2.2 -4.01,5.04 -4.01,8.5 0,5.31 3.79,9.92 10.8,13.8 6.35,3.46 19.2,10.8 19.2,10.8 6.99,4.96 10.5,10.3 10.5,19"
       style="fill:#f29111"
       id="path6" />
    <path
       d="m 358,83.1 h 2.37 v -9.13 h 3.1 v -1.86 h -8.7 v 1.86 h 3.22 z m 18.1,0 h 2.24 v -11 h -3.36 l -2.74,7.49 -2.98,-7.49 h -3.24 v 11 h 2.12 v -8.37 h 0.12 l 3.12,8.37 h 1.61 l 3.12,-8.37 v 8.37"
       style="fill:#f29111"
       id="path8" />
  </g>
  <metadata
     id="metadata16">
    <rdf:RDF>
      <cc:Work
         rdf:about="">
        <dc:title>MySQL textlogo</dc:title>
      </cc:Work>
    </rdf:RDF>
  </metadata>
  <path
     id="path25"
     style="fill:#00758f;fill-opacity:1;stroke-width:10.582"
     d="m 23.896827,4.0576695 c -3.300495,-0.047886 -6.172984,1.1955986 -7.641297,4.8344956 -2.54041,6.1693429 3.745555,12.1824189 5.957214,15.2723699 1.598451,2.200998 3.640342,4.632852 4.793664,7.056118 0.66712,1.650744 0.826401,3.365573 1.493555,5.069254 1.491707,4.137591 2.919956,8.763023 4.909346,12.625494 1.048703,1.989374 2.147468,4.074342 3.470227,5.841533 0.771216,1.047658 2.096467,1.490836 2.371323,3.194657 -1.323594,1.925862 -1.429695,4.742053 -2.150186,7.059515 -3.418092,10.687874 -2.095282,23.862122 2.697931,31.745739 1.545028,2.37046 5.123185,7.555405 9.927563,5.565965 4.24322,-1.70384 3.311958,-7.058003 4.518094,-11.798747 0.27498,-1.153342 0.106415,-1.874374 0.666823,-2.646898 v 0.221142 c 1.374302,2.645568 2.699099,5.186293 3.915915,7.831806 2.867873,4.634947 7.990765,9.429707 12.234247,12.625487 2.265551,1.70386 4.020198,4.63441 6.834976,5.67145 v -0.27557 h -0.214335 c -0.603072,-0.82537 -1.375607,-1.21842 -2.146778,-1.87463 -1.702518,-1.70383 -3.588174,-3.79841 -4.96378,-5.67143 C 66.6558,101.1144 63.131412,95.272438 60.041585,89.261854 c -1.54508,-2.973553 -2.866236,-6.166591 -4.072408,-9.087233 -0.549697,-1.100487 -0.551561,-2.817877 -1.493572,-3.368148 -1.427657,2.042483 -3.523234,3.800096 -4.518094,6.392698 -1.819919,4.021154 -1.990262,9.035906 -2.697914,14.2211 -0.328143,0.106767 -0.162225,0.0033 -0.330024,0.224551 -3.026353,-0.772535 -4.073749,-3.86285 -5.184918,-6.508374 -2.867576,-6.719597 -3.311957,-17.472026 -0.877768,-25.186345 0.667171,-1.989372 3.472614,-8.211026 2.371323,-10.084056 -0.60307,-1.820198 -2.475942,-2.868361 -3.470211,-4.29694 -1.27024,-1.767105 -2.541508,-4.022259 -3.419207,-6.011666 C 34.083238,40.266423 32.98362,34.426162 30.50726,29.135127 29.407814,26.711844 27.416978,24.173087 25.81905,21.9191 c -1.819919,-2.539626 -3.798631,-4.350975 -5.184918,-7.335104 -0.496376,-1.047656 -1.152139,-2.750344 -0.381044,-3.86146 0.15989,-0.7725396 0.549591,-1.0467351 1.323455,-1.2690206 1.21685,-1.0476582 4.740363,0.2746649 5.957213,0.8777686 3.47089,1.375608 6.391091,2.698768 9.311761,4.688192 1.323595,0.941732 2.752837,2.697286 4.467056,3.194656 h 1.986882 c 3.026632,0.666596 6.39156,0.168322 9.206305,1.047867 5.016004,1.597912 9.534691,3.914625 13.608719,6.443731 12.349387,7.883633 22.48877,19.016427 29.377822,32.296881 1.15276,2.148167 1.651327,4.138723 2.69793,6.392711 1.926679,4.687826 4.410579,9.364226 6.389299,13.829854 1.98004,4.465628 3.86551,8.983373 6.7227,12.676518 1.42766,1.989388 7.0566,3.026662 9.63837,4.021383 1.87335,0.878213 4.79303,1.652067 6.44373,2.646898 3.24896,1.989377 6.44485,4.242675 9.48188,6.443725 1.54508,1.04766 6.23326,3.41738 6.50838,5.29039 l -0.007,0.0239 c -7.55563,-0.16811 -13.39725,0.60258 -18.29691,2.69793 -1.37697,0.55024 -3.63921,0.54979 -3.86148,2.31689 0.77122,0.77253 0.87747,1.99088 1.54459,3.02794 1.15282,1.87303 3.09257,4.4099 4.91275,5.73266 1.98803,1.54508 3.96574,3.08989 6.00825,4.41264 3.69321,2.26449 7.83247,3.58759 11.46195,5.84154 2.04139,1.32277 4.13662,3.02638 6.16813,4.41261 1.04876,0.71971 1.70648,1.99187 3.02796,2.42577 v -0.27558 c -0.66717,-0.82537 -0.82645,-2.04369 -1.49357,-3.02794 -0.94199,-0.94172 -1.87216,-1.76661 -2.81359,-2.69793 -2.75126,-3.69314 -6.11554,-6.8874 -9.80849,-9.53291 -3.02664,-2.04221 -9.64295,-4.91204 -10.85975,-8.38297 l -0.15991,-0.22114 c 2.04141,-0.16811 4.46475,-0.9399 6.44373,-1.49016 3.19553,-0.82537 6.16968,-0.66817 9.48188,-1.49355 1.49169,-0.38106 2.97327,-0.82604 4.5181,-1.32346 v -0.82332 c -1.7052,-1.70358 -2.9719,-4.0225 -4.73926,-5.62039 -4.79343,-4.13757 -10.08421,-8.212535 -15.54454,-11.577628 -2.97353,-1.925856 -6.71993,-3.141356 -9.86292,-4.739226 -1.09945,-0.55026 -3.0266,-0.82715 -3.64035,-1.769148 -1.70517,-2.095307 -2.69878,-4.793887 -3.91589,-7.280646 -2.69842,-5.185235 -5.34233,-10.909102 -7.71274,-16.422336 -1.70519,-3.69314 -2.69834,-7.332892 -4.793683,-10.750879 C 89.728245,36.724289 79.144731,27.030683 62.943634,17.496271 59.472693,15.506881 55.282217,14.682397 50.8693,13.634793 48.499632,13.528049 46.183632,13.359709 43.813181,13.253749 42.268102,12.587153 40.784563,10.828933 39.461787,9.9400322 36.088776,7.8037817 29.397642,4.1374486 23.896827,4.0576695 Z M 47.171142,27.369399 c -1.641599,0.0016 -2.737438,0.221797 -3.844478,0.496708 v 0.166718 h 0.159908 c 0.773863,1.428458 2.04271,2.542065 3.027937,3.864876 0.771182,1.491969 1.426298,3.026022 2.146773,4.518095 l 0.214342,-0.221154 c 1.323595,-0.941714 1.990278,-2.423615 1.990278,-4.688192 -0.549696,-0.666597 -0.66764,-1.376533 -1.153339,-1.990279 -0.549696,-0.941715 -1.767575,-1.427082 -2.541421,-2.146772 z" />
</svg>
