<?xml version="1.0" encoding="UTF-8" standalone="no"?>
<svg
   viewBox="0 0 512 512"
   version="1.1"
   id="svg10"
   sodipodi:docname="Nuxt_logo.svg"
   width="512"
   height="512"
   inkscape:version="1.1.2 (0a00cf5339, 2022-02-04)"
   xmlns:inkscape="http://www.inkscape.org/namespaces/inkscape"
   xmlns:sodipodi="http://sodipodi.sourceforge.net/DTD/sodipodi-0.dtd"
   xmlns="http://www.w3.org/2000/svg"
   xmlns:svg="http://www.w3.org/2000/svg">
  <defs
     id="defs14" />
  <sodipodi:namedview
     id="namedview12"
     pagecolor="#ffffff"
     bordercolor="#666666"
     borderopacity="1.0"
     inkscape:pageshadow="2"
     inkscape:pageopacity="0.0"
     inkscape:pagecheckerboard="0"
     showgrid="false"
     width="512px"
     inkscape:zoom="0.8625279"
     inkscape:cx="126.95241"
     inkscape:cy="446.94206"
     inkscape:window-width="1854"
     inkscape:window-height="1052"
     inkscape:window-x="0"
     inkscape:window-y="0"
     inkscape:window-maximized="1"
     inkscape:current-layer="svg10" />
  <g
     fill="none"
     fill-rule="nonzero"
     id="g8"
     transform="matrix(1.2752104,0,0,1.2752104,1.4491207,65.820898)">
    <path
       fill="#00c58e"
       d="m 227.92099,82.07407 -13.6889,23.7037 L 167.41729,24.69136 23.7037,273.58025 h 97.3037 c 0,13.0912 10.61252,23.7037 23.70371,23.7037 H 23.70371 c -8.46771,0 -16.29145,-4.52017 -20.5246,-11.85382 -4.23315,-7.33366 -4.23272,-16.36849 0.00114,-23.70174 L 146.89383,12.83951 c 4.23415,-7.33433 12.0596,-11.85252 20.5284,-11.85252 8.46878,0 16.29423,4.51819 20.52839,11.85252 z"
       id="path2" />
    <path
       fill="#2f495e"
       d="m 331.6642,261.7284 -90.05432,-155.95062 -13.6889,-23.7037 -13.68888,23.7037 -90.04445,155.95061 c -4.23385,7.33325 -4.23428,16.36808 -0.001,23.70174 4.23314,7.33365 12.05689,11.85382 20.5246,11.85382 h 166.4 c 8.46946,0 16.29644,-4.51525 20.532,-11.84955 4.23555,-7.3343 4.23606,-16.37123 10e-4,-23.706 z m -186.9531,11.85184 83.2099,-144.09876 83.19012,144.09877 h -166.4 z"
       id="path4" />
    <path
       fill="#108775"
       d="m 396.04938,285.4321 c -4.23344,7.33254 -12.05656,11.85185 -20.52345,11.85185 H 311.1111 c 13.0912,0 23.7037,-10.6125 23.7037,-23.7037 h 40.66173 L 260.09877,73.74815 241.60987,105.77778 227.92099,82.07408 239.5753,61.8963 c 4.23416,-7.33433 12.0596,-11.85252 20.5284,-11.85252 8.46879,0 16.29423,4.51819 20.52839,11.85252 l 115.41728,199.8321 c 4.23426,7.33395 4.23426,16.36975 0,23.7037 z"
       id="path6" />
  </g>
</svg>
